<svg xmlns="http://www.w3.org/2000/svg" viewBox="0 0 38.727 29.045">
  <defs>
    <style>
      .cls-1 {
        fill: #efe7e7;
      }
    </style>
  </defs>
  <path id="volume-mute-solid_1_" data-name="volume-mute-solid (1)" class="cls-1" d="M16.264,64.537,9.535,71.265H1.815A1.815,1.815,0,0,0,0,73.08V83.972a1.815,1.815,0,0,0,1.815,1.815h7.72l6.729,6.728a1.816,1.816,0,0,0,3.1-1.284V65.821A1.816,1.816,0,0,0,16.264,64.537ZM34.917,78.526l3.452-3.452a1.221,1.221,0,0,0,0-1.726l-1.726-1.726a1.221,1.221,0,0,0-1.726,0l-3.452,3.452-3.452-3.452a1.221,1.221,0,0,0-1.726,0l-1.726,1.726a1.221,1.221,0,0,0,0,1.726l3.452,3.452-3.451,3.451a1.221,1.221,0,0,0,0,1.726l1.726,1.726a1.221,1.221,0,0,0,1.726,0l3.451-3.451,3.452,3.452a1.221,1.221,0,0,0,1.726,0L38.369,83.7a1.221,1.221,0,0,0,0-1.726Z" transform="translate(0 -64.004)"/>
</svg>
