<svg xmlns="http://www.w3.org/2000/svg" viewBox="0 0 27.789 27.789">
  <defs>
    <style>
      .cls-1 {
        fill: #efe7e7;
      }
    </style>
  </defs>
  <path id="plus-solid_3_" data-name="plus-solid (3)" class="cls-1" d="M25.8,42.917H16.872V33.985A1.985,1.985,0,0,0,14.887,32H12.9a1.985,1.985,0,0,0-1.985,1.985v8.932H1.985A1.985,1.985,0,0,0,0,44.9v1.985a1.985,1.985,0,0,0,1.985,1.985h8.932V57.8A1.985,1.985,0,0,0,12.9,59.789h1.985A1.985,1.985,0,0,0,16.872,57.8V48.872H25.8a1.985,1.985,0,0,0,1.985-1.985V44.9A1.985,1.985,0,0,0,25.8,42.917Z" transform="translate(0 -32)"/>
</svg>
